<?xml version="1.0" encoding="utf-8"?>
<!-- Generator: Adobe Illustrator 27.0.0, SVG Export Plug-In . SVG Version: 6.00 Build 0)  -->
<svg version="1.1" id="Слой_1" xmlns="http://www.w3.org/2000/svg" xmlns:xlink="http://www.w3.org/1999/xlink" x="0px" y="0px"
	 viewBox="0 0 63 63" style="enable-background:new 0 0 63 63;" xml:space="preserve">
<style type="text/css">
	.st0{fill:#FF9500;}
</style>
<g>
	<path class="st0" d="M28.2,5c1.6-2.3,5-2.3,6.6,0l7.9,11.5c0.5,0.8,1.3,1.3,2.2,1.6L58.1,22c2.7,0.8,3.7,4,2,6.3l-8.5,11
		c-0.6,0.7-0.9,1.6-0.8,2.5l0.4,13.9c0.1,2.8-2.7,4.8-5.3,3.9l-13.1-4.7c-0.9-0.3-1.8-0.3-2.7,0l-13.1,4.7c-2.6,0.9-5.4-1.1-5.3-3.9
		l0.4-13.9c0-0.9-0.3-1.8-0.8-2.5l-8.5-11c-1.7-2.2-0.7-5.5,2-6.3L18.2,18c0.9-0.3,1.6-0.8,2.2-1.6L28.2,5z"/>
</g>
</svg>
