<svg width="25" height="25" viewBox="0 0 25 25" fill="none" xmlns="http://www.w3.org/2000/svg">
<g id="Vector">
<path d="M12.5 0C5.59495 0 0 5.59495 0 12.5C0 19.405 5.59495 25 12.5 25C19.405 25 25 19.405 25 12.5C25 5.59495 19.405 0 12.5 0ZM18.9002 9.04447L10.8654 17.1154H10.8594C10.7572 17.2175 10.4808 17.4459 10.1623 17.4459C9.93389 17.4459 9.67548 17.3197 9.45913 17.1034L6.09375 13.738C5.9976 13.6418 5.9976 13.4916 6.09375 13.3954L7.16346 12.3257C7.21154 12.2776 7.27163 12.2536 7.33173 12.2536C7.39183 12.2536 7.45192 12.2776 7.5 12.3257L10.1683 14.994L17.5 7.60817C17.5481 7.5601 17.6082 7.53606 17.6683 7.53606C17.7344 7.53606 17.7945 7.5601 17.8365 7.60817L18.8882 8.69591C18.9964 8.79808 18.9964 8.94832 18.9002 9.04447V9.04447Z" fill="#34C759"/>
<path d="M12.5 0C5.59495 0 0 5.59495 0 12.5C0 19.405 5.59495 25 12.5 25C19.405 25 25 19.405 25 12.5C25 5.59495 19.405 0 12.5 0ZM18.9002 9.04447L10.8654 17.1154H10.8594C10.7572 17.2175 10.4808 17.4459 10.1623 17.4459C9.93389 17.4459 9.67548 17.3197 9.45913 17.1034L6.09375 13.738C5.9976 13.6418 5.9976 13.4916 6.09375 13.3954L7.16346 12.3257C7.21154 12.2776 7.27163 12.2536 7.33173 12.2536C7.39183 12.2536 7.45192 12.2776 7.5 12.3257L10.1683 14.994L17.5 7.60817C17.5481 7.5601 17.6082 7.53606 17.6683 7.53606C17.7344 7.53606 17.7945 7.5601 17.8365 7.60817L18.8882 8.69591C18.9964 8.79808 18.9964 8.94832 18.9002 9.04447V9.04447Z" fill="url(#paint0_linear_1284_1836)"/>
</g>
<defs>
<linearGradient id="paint0_linear_1284_1836" x1="12.5" y1="0" x2="12.5" y2="25" gradientUnits="userSpaceOnUse">
<stop stop-color="#75D592"/>
<stop offset="1" stop-color="#48AE67"/>
</linearGradient>
</defs>
</svg>
