<svg width="32" height="32" viewBox="0 0 32 32" fill="none" xmlns="http://www.w3.org/2000/svg">
<path d="M14.9956 4.76649C15.72 3.7445 17.28 3.7445 18.0044 4.76649L21.6005 9.83982C21.8377 10.1744 22.1868 10.4197 22.5892 10.5344L28.6908 12.2734C29.92 12.6237 30.402 14.0582 29.6206 15.0401L25.7415 19.9147C25.4857 20.2361 25.3523 20.633 25.3638 21.0384L25.5387 27.1866C25.574 28.4251 24.312 29.3116 23.1046 28.8965L17.1111 26.8358C16.7158 26.6999 16.2842 26.6999 15.8889 26.8358L9.8954 28.8965C8.68804 29.3116 7.42603 28.4251 7.46126 27.1866L7.63615 21.0384C7.64769 20.633 7.51431 20.2361 7.2585 19.9147L3.3794 15.0401C2.59798 14.0582 3.08002 12.6237 4.30916 12.2734L10.4108 10.5344C10.8132 10.4197 11.1623 10.1744 11.3995 9.83982L14.9956 4.76649Z" fill="#FFCC00"/>
</svg>
