<svg width="46" height="46" viewBox="0 0 46 46" fill="none" xmlns="http://www.w3.org/2000/svg">
<g id="Component 2">
<path id="Vector" d="M37.751 30.3362L41.597 27.3589C41.8678 27.1492 41.8382 26.7374 41.5332 26.5816C40.007 25.802 35.9048 23.8765 31.2154 23.0867C30.9269 23.0382 30.667 23.2627 30.667 23.5551V34.0632C30.667 34.2999 30.8401 34.5008 31.0736 34.54C34.9415 35.1903 38.5827 36.6595 40.5803 37.5667C41.0252 37.7688 41.4982 37.2458 41.2422 36.8297L37.6361 30.9661C37.5079 30.7576 37.5575 30.486 37.751 30.3362Z" fill="#F1333B"/>
<path id="Vector_2" fill-rule="evenodd" clip-rule="evenodd" d="M38.6772 30.8306L42.183 28.1167C42.9811 27.4988 42.9305 26.2196 41.9685 25.7282C40.4073 24.9307 36.2041 22.9552 31.3738 22.1417C30.4877 21.9925 29.708 22.6831 29.708 23.5552V34.0632C29.708 34.7771 30.2283 35.3698 30.9141 35.4852C34.6633 36.1155 38.2177 37.5466 40.1834 38.4393C40.8585 38.7459 41.521 38.476 41.8855 38.0715C42.2514 37.6652 42.4525 36.9693 42.0579 36.3277L38.6772 30.8306ZM41.5964 27.3589L37.7503 30.3362C37.5568 30.486 37.5073 30.7577 37.6355 30.9661L41.2415 36.8297C41.4975 37.2459 41.0245 37.7688 40.5796 37.5668C38.582 36.6595 34.9408 35.1903 31.073 34.5401C30.8395 34.5008 30.6663 34.3 30.6663 34.0632V23.5552C30.6663 23.2627 30.9262 23.0382 31.2147 23.0868C35.9042 23.8766 40.0064 25.8021 41.5326 26.5817C41.8375 26.7374 41.8671 27.1492 41.5964 27.3589Z" fill="#9B0F15"/>
<path id="Vector_3" d="M38.8128 28.4637C38.8128 25.0428 38.265 23.3263 38.0061 22.706C37.9268 22.5163 37.7939 22.3581 37.62 22.2485C36.9069 21.7992 34.6911 20.7403 30.9911 21.9329C30.7973 21.9953 30.667 22.1782 30.667 22.3818V33.5492C30.667 33.8653 30.9689 34.0944 31.2777 34.027C33.8433 33.4675 35.9706 33.8882 37.0687 34.2144C37.5361 34.3533 38.0446 34.1734 38.1908 33.7083C38.4634 32.8407 38.8128 31.1957 38.8128 28.4637Z" fill="#C52229"/>
<path id="Vector_4" fill-rule="evenodd" clip-rule="evenodd" d="M39.7705 28.4635C39.7705 24.941 39.2063 23.095 38.8898 22.3366C38.7354 21.9669 38.4731 21.6535 38.1302 21.4375C37.2127 20.8593 34.7041 19.7288 30.6964 21.0206C30.0978 21.2136 29.708 21.7715 29.708 22.3816V33.549C29.708 34.5151 30.613 35.1525 31.4813 34.9632C33.8417 34.4483 35.7981 34.8367 36.7951 35.1329C37.6017 35.3725 38.755 35.1074 39.1044 33.9954C39.4108 33.0204 39.7705 31.2767 39.7705 28.4635ZM38.0054 22.7058C38.2643 23.3261 38.8122 25.0425 38.8122 28.4635C38.8122 31.1955 38.4628 32.8405 38.1901 33.7081C38.044 34.1732 37.5354 34.3531 37.0681 34.2143C35.97 33.888 33.8426 33.4673 31.2771 34.0268C30.9682 34.0942 30.6663 33.8652 30.6663 33.549V22.3816C30.6663 22.178 30.7966 21.9952 30.9904 21.9327C34.6904 20.7401 36.9063 21.799 37.6193 22.2483C37.7932 22.3579 37.9262 22.5161 38.0054 22.7058Z" fill="#9B0F15"/>
<path id="Vector_5" d="M8.24925 30.3362L4.40322 27.3589C4.13241 27.1492 4.16203 26.7374 4.46701 26.5816C5.99323 25.802 10.0954 23.8765 14.7849 23.0867C15.0733 23.0382 15.3332 23.2627 15.3332 23.5551V34.0632C15.3332 34.2999 15.1601 34.5008 14.9266 34.54C11.0587 35.1903 7.41756 36.6595 5.41996 37.5667C4.97505 37.7688 4.50207 37.2458 4.75802 36.8297L8.3641 30.9661C8.49233 30.7576 8.44278 30.486 8.24925 30.3362Z" fill="#F1333B"/>
<path id="Vector_6" fill-rule="evenodd" clip-rule="evenodd" d="M7.3221 30.8306L3.81629 28.1167C3.01819 27.4988 3.06882 26.2196 4.03077 25.7282C5.59202 24.9307 9.79523 22.9552 14.6255 22.1417C15.5116 21.9925 16.2913 22.6831 16.2913 23.5552V34.0632C16.2913 34.7771 15.771 35.3698 15.0852 35.4852C11.336 36.1155 7.78158 37.5466 5.81589 38.4393C5.14084 38.7459 4.47823 38.476 4.11383 38.0715C3.7479 37.6652 3.54679 36.9693 3.94141 36.3277L7.3221 30.8306ZM4.40293 27.3589L8.24895 30.3362C8.44249 30.486 8.49204 30.7577 8.36381 30.9661L4.75773 36.8297C4.50178 37.2459 4.97476 37.7688 5.41967 37.5668C7.41727 36.6595 11.0585 35.1903 14.9263 34.5401C15.1598 34.5008 15.333 34.3 15.333 34.0632V23.5552C15.333 23.2627 15.0731 23.0382 14.7846 23.0868C10.0951 23.8766 5.99294 25.8021 4.46672 26.5817C4.16174 26.7374 4.13212 27.1492 4.40293 27.3589Z" fill="#9B0F15"/>
<path id="Vector_7" d="M7.1875 28.4637C7.1875 25.0428 7.73533 23.3263 7.99427 22.706C8.07348 22.5163 8.20645 22.3581 8.38034 22.2485C9.09339 21.7992 11.3092 20.7403 15.0092 21.9329C15.203 21.9953 15.3333 22.1782 15.3333 22.3818V33.5492C15.3333 33.8653 15.0315 34.0944 14.7226 34.027C12.157 33.4675 10.0297 33.8882 8.93162 34.2144C8.46424 34.3533 7.9557 34.1734 7.80955 33.7083C7.53691 32.8407 7.1875 31.1957 7.1875 28.4637Z" fill="#C52229"/>
<path id="Vector_8" fill-rule="evenodd" clip-rule="evenodd" d="M6.22949 28.4635C6.22949 24.941 6.79366 23.095 7.11025 22.3366C7.26464 21.9669 7.52693 21.6535 7.86978 21.4375C8.78728 20.8593 11.2959 19.7288 15.3036 21.0206C15.9022 21.2136 16.292 21.7715 16.292 22.3816V33.549C16.292 34.5151 15.387 35.1525 14.5187 34.9632C12.1583 34.4483 10.2019 34.8367 9.20488 35.1329C8.39834 35.3725 7.24504 35.1074 6.89563 33.9954C6.58925 33.0204 6.22949 31.2767 6.22949 28.4635ZM7.9946 22.7058C7.73566 23.3261 7.18783 25.0425 7.18783 28.4635C7.18783 31.1955 7.53723 32.8405 7.80988 33.7081C7.95603 34.1732 8.46457 34.3531 8.93194 34.2143C10.03 33.888 12.1574 33.4673 14.7229 34.0268C15.0318 34.0942 15.3337 33.8652 15.3337 33.549V22.3816C15.3337 22.178 15.2034 21.9952 15.0096 21.9327C11.3096 20.7401 9.09371 21.799 8.38066 22.2483C8.20677 22.3579 8.0738 22.5161 7.9946 22.7058Z" fill="#9B0F15"/>
<path id="Vector_9" d="M7.66699 28.2708C7.66699 25.861 8.06274 23.9458 8.2856 23.0585C8.37429 22.7051 8.58028 22.3984 8.88235 22.1949C10.2572 21.2686 14.822 18.6875 23.0003 18.6875C31.1311 18.6875 35.6903 21.2387 37.094 22.1786C37.4111 22.3909 37.6243 22.7161 37.7123 23.0875C37.9346 24.0259 38.3337 26.0237 38.3337 28.2708C38.3337 30.0189 38.0922 31.616 37.8802 32.6809C37.75 33.3355 36.9812 33.623 36.3963 33.3015C34.3768 32.1914 29.7907 30.1875 23.0003 30.1875C16.1709 30.1875 11.5711 32.2146 9.56971 33.3206C8.99505 33.6381 8.24487 33.3662 8.1131 32.7231C7.90298 31.6976 7.66699 30.1317 7.66699 28.2708Z" fill="#F1333B"/>
<path id="Vector_10" fill-rule="evenodd" clip-rule="evenodd" d="M6.70801 28.2709C6.70801 25.7605 7.11961 23.7642 7.35546 22.8251C7.49815 22.2569 7.83606 21.7439 8.34623 21.4002C9.85805 20.3816 14.6064 17.7292 22.9997 17.7292C31.344 17.7292 36.0859 20.3508 37.6265 21.3823C38.1601 21.7396 38.5049 22.2788 38.6441 22.8667L37.7116 23.0876C37.6236 22.7162 37.4104 22.391 37.0933 22.1786C35.6896 21.2388 31.1305 18.6876 22.9997 18.6876C14.8213 18.6876 10.2565 21.2687 8.8817 22.195C8.57963 22.3985 8.37364 22.7052 8.28495 23.0585C8.06209 23.9459 7.66634 25.861 7.66634 28.2709C7.66634 30.1318 7.90233 31.6977 8.11245 32.7231C8.24422 33.3663 8.9944 33.6382 9.56906 33.3207C11.5705 32.2146 16.1702 30.1876 22.9997 30.1876C29.79 30.1876 34.3761 32.1915 36.3957 33.3016C36.9805 33.6231 37.7493 33.3356 37.8796 32.681C38.0915 31.6161 38.333 30.019 38.333 28.2709C38.333 26.0238 37.9339 24.026 37.7116 23.0876L38.6441 22.8667C38.8754 23.8431 39.2913 25.9208 39.2913 28.2709C39.2913 30.1017 39.0391 31.7647 38.8195 32.868C38.541 34.2676 36.9848 34.719 35.9341 34.1414C34.0244 33.0917 29.5961 31.1459 22.9997 31.1459C16.3653 31.1459 11.9241 33.1142 10.0326 34.1594C9.00116 34.7294 7.45915 34.3091 7.17361 32.9155C6.95372 31.8424 6.70801 30.2107 6.70801 28.2709Z" fill="#9B0F15"/>
<path id="Vector_11" d="M34.4554 23.0002C34.4554 23.3101 34.2103 23.5614 33.9078 23.5614C33.6055 23.5614 33.3604 23.3101 33.3604 23.0002C33.3604 22.6902 33.6055 22.439 33.9078 22.439C34.2103 22.439 34.4554 22.6902 34.4554 23.0002Z" fill="#DB1B24"/>
<path id="Vector_12" d="M31.6703 21.1416C31.6703 21.393 31.4715 21.5968 31.2263 21.5968C30.981 21.5968 30.7822 21.393 30.7822 21.1416C30.7822 20.8903 30.981 20.6865 31.2263 20.6865C31.4715 20.6865 31.6703 20.8903 31.6703 21.1416Z" fill="#DB1B24"/>
<path id="Vector_13" d="M32.1444 22.9999C32.1444 23.3854 31.8395 23.698 31.4633 23.698C31.0872 23.698 30.7822 23.3854 30.7822 22.9999C30.7822 22.6143 31.0872 22.3018 31.4633 22.3018C31.8395 22.3018 32.1444 22.6143 32.1444 22.9999Z" fill="#DB1B24"/>
<path id="Vector_14" d="M33.994 25.1722C33.994 25.5578 33.6891 25.8703 33.3129 25.8703C32.9368 25.8703 32.6318 25.5578 32.6318 25.1722C32.6318 24.7867 32.9368 24.4741 33.3129 24.4741C33.6891 24.4741 33.994 24.7867 33.994 25.1722Z" fill="#DB1B24"/>
<path id="Vector_15" d="M35.4057 24.8231C35.4057 25.0159 35.2532 25.1722 35.0652 25.1722C34.8771 25.1722 34.7246 25.0159 34.7246 24.8231C34.7246 24.6304 34.8771 24.4741 35.0652 24.4741C35.2532 24.4741 35.4057 24.6304 35.4057 24.8231Z" fill="#DB1B24"/>
<path id="Vector_16" d="M31.8032 25.4252C31.8032 25.618 31.6507 25.7743 31.4626 25.7743C31.2745 25.7743 31.1221 25.618 31.1221 25.4252C31.1221 25.2324 31.2745 25.0762 31.4626 25.0762C31.6507 25.0762 31.8032 25.2324 31.8032 25.4252Z" fill="#DB1B24"/>
<path id="Vector_17" d="M29.8159 21.0355C29.8159 21.2283 29.6634 21.3846 29.4753 21.3846C29.2872 21.3846 29.1348 21.2283 29.1348 21.0355C29.1348 20.8428 29.2872 20.6865 29.4753 20.6865C29.6634 20.6865 29.8159 20.8428 29.8159 21.0355Z" fill="#DB1B24"/>
<path id="Vector_18" d="M33.3608 21.5968C33.3608 21.7896 33.2083 21.9459 33.0202 21.9459C32.8322 21.9459 32.6797 21.7896 32.6797 21.5968C32.6797 21.4041 32.8322 21.2478 33.0202 21.2478C33.2083 21.2478 33.3608 21.4041 33.3608 21.5968Z" fill="#DB1B24"/>
<path id="Vector_19" d="M33.3129 27.6085C33.3129 27.8013 33.1605 27.9576 32.9724 27.9576C32.7843 27.9576 32.6318 27.8013 32.6318 27.6085C32.6318 27.4158 32.7843 27.2595 32.9724 27.2595C33.1605 27.2595 33.3129 27.4158 33.3129 27.6085Z" fill="#DB1B24"/>
<path id="Vector_20" d="M35.9633 23.0434C35.9633 23.2362 35.8108 23.3924 35.6228 23.3924C35.4347 23.3924 35.2822 23.2362 35.2822 23.0434C35.2822 22.8506 35.4347 22.6943 35.6228 22.6943C35.8108 22.6943 35.9633 22.8506 35.9633 23.0434Z" fill="#DB1B24"/>
<path id="Vector_21" d="M35.9375 20.125C35.9375 27.2702 30.1452 33.0625 23 33.0625C15.8548 33.0625 10.0625 27.2702 10.0625 20.125C10.0625 12.9798 15.8548 7.1875 23 7.1875C30.1452 7.1875 35.9375 12.9798 35.9375 20.125Z" fill="#FFBB0D"/>
<path id="Vector_22" fill-rule="evenodd" clip-rule="evenodd" d="M36.8962 20.1251C36.8962 27.7996 30.6748 34.0209 23.0003 34.0209C15.3258 34.0209 9.10449 27.7996 9.10449 20.1251C9.10449 12.4506 15.3258 6.22925 23.0003 6.22925C30.6748 6.22925 36.8962 12.4506 36.8962 20.1251ZM23.0003 33.0626C30.1455 33.0626 35.9378 27.2703 35.9378 20.1251C35.9378 12.9799 30.1455 7.18758 23.0003 7.18758C15.8551 7.18758 10.0628 12.9799 10.0628 20.1251C10.0628 27.2703 15.8551 33.0626 23.0003 33.0626Z" fill="#E89B05"/>
<path id="Vector_23" fill-rule="evenodd" clip-rule="evenodd" d="M11.0212 20.6042C10.7565 20.6042 10.542 20.3897 10.542 20.1251C10.542 13.2445 16.1198 7.66675 23.0003 7.66675C23.265 7.66675 23.4795 7.88127 23.4795 8.14591C23.4795 8.41056 23.265 8.62508 23.0003 8.62508C16.6491 8.62508 11.5003 13.7738 11.5003 20.1251C11.5003 20.3897 11.2858 20.6042 11.0212 20.6042Z" fill="#FFD15C"/>
<path id="Vector_24" fill-rule="evenodd" clip-rule="evenodd" d="M34.9788 19.6458C35.2435 19.6458 35.458 19.8603 35.458 20.1249C35.458 27.0055 29.8802 32.5833 22.9997 32.5833C22.735 32.5833 22.5205 32.3687 22.5205 32.1041C22.5205 31.8394 22.735 31.6249 22.9997 31.6249C29.3509 31.6249 34.4997 26.4762 34.4997 20.1249C34.4997 19.8603 34.7142 19.6458 34.9788 19.6458Z" fill="#EEAD04"/>
<path id="Vector_25" d="M32.5837 20.1251C32.5837 25.4178 28.2931 29.7084 23.0003 29.7084C17.7076 29.7084 13.417 25.4178 13.417 20.1251C13.417 14.8323 17.7076 10.5417 23.0003 10.5417C28.2931 10.5417 32.5837 14.8323 32.5837 20.1251Z" fill="#FFDD28"/>
<path id="Vector_26" fill-rule="evenodd" clip-rule="evenodd" d="M33.5413 20.1249C33.5413 25.9469 28.8217 30.6666 22.9997 30.6666C17.1777 30.6666 12.458 25.9469 12.458 20.1249C12.458 14.3029 17.1777 9.58325 22.9997 9.58325C28.8217 9.58325 33.5413 14.3029 33.5413 20.1249ZM22.9997 29.7083C28.2924 29.7083 32.583 25.4177 32.583 20.1249C32.583 14.8322 28.2924 10.5416 22.9997 10.5416C17.7069 10.5416 13.4163 14.8322 13.4163 20.1249C13.4163 25.4177 17.7069 29.7083 22.9997 29.7083Z" fill="#E89B05"/>
<path id="Vector_27" d="M24.144 23.9582H22.5213V17.7029L20.584 18.3037V16.9841L23.97 15.7712H24.144V23.9582Z" fill="#FFEF9C"/>
<path id="Vector_28" fill-rule="evenodd" clip-rule="evenodd" d="M25.1017 23.9583C25.1017 24.4876 24.6727 24.9166 24.1434 24.9166H22.5206C21.9913 24.9166 21.5623 24.4876 21.5623 23.9583V19.0035L20.8672 19.2191C20.5764 19.3093 20.26 19.2559 20.0148 19.0753C19.7697 18.8947 19.625 18.6083 19.625 18.3038V16.9842C19.625 16.5795 19.8792 16.2185 20.2602 16.082L23.6462 14.8691C23.7499 14.832 23.8592 14.813 23.9693 14.813H24.1434C24.6727 14.813 25.1017 15.242 25.1017 15.7713V23.9583ZM22.5206 17.7029V23.9583H24.1434V15.7713H23.9693L20.5833 16.9842V18.3038L22.5206 17.7029Z" fill="#E89B05"/>
</g>
</svg>
